<?xml version="1.0" encoding="UTF-8"?>
<svg version="1.1" xmlns="http://www.w3.org/2000/svg" width="800" height="800">
<path d="M0 0 C1.67958298 -0.00939606 1.67958298 -0.00939606 3.39309692 -0.01898193 C17.697747 -0.06961693 31.48812266 0.84487277 45.61502075 3.0980835 C48.90164548 3.59168744 52.19289326 3.92215853 55.5 4.25 C73.25381499 6.44634825 90.9744008 10.59112979 107.875 16.4375 C109.85408738 17.08357627 111.83325088 17.72941941 113.8125 18.375 C115.83476658 19.05827263 117.85545851 19.7462144 119.875 20.4375 C120.53145508 20.66050781 121.18791016 20.88351563 121.86425781 21.11328125 C130.7611059 24.1451001 139.39408737 27.36415527 147.875 31.4375 C149.43164574 32.15504877 150.98900849 32.87104302 152.546875 33.5859375 C166.01420946 39.81643512 179.59370378 46.39058061 191.65234375 55.12109375 C194.11198508 56.88905412 196.3765111 58.33646367 199.0625 59.6875 C207.9014333 64.48277164 215.65388318 71.17706343 223.44921875 77.48046875 C225.06766569 78.78617232 226.69536512 80.08048887 228.33203125 81.36328125 C234.00424282 85.82065695 239.34709339 90.52304144 244.625 95.43359375 C246.70415215 97.46078817 246.70415215 97.46078817 248.875 98.4375 C248.875 99.0975 248.875 99.7575 248.875 100.4375 C250.195 101.0975 251.515 101.7575 252.875 102.4375 C252.875 103.0975 252.875 103.7575 252.875 104.4375 C254.195 105.0975 255.515 105.7575 256.875 106.4375 C256.875 107.0975 256.875 107.7575 256.875 108.4375 C258.195 109.0975 259.515 109.7575 260.875 110.4375 C260.875 111.0975 260.875 111.7575 260.875 112.4375 C261.535 112.4375 262.195 112.4375 262.875 112.4375 C264.21484375 113.73046875 264.21484375 113.73046875 265.8125 115.625 C266.74449219 116.72328125 266.74449219 116.72328125 267.6953125 117.84375 C268.41460938 118.6996875 269.13390625 119.555625 269.875 120.4375 C270.71804688 121.4171875 271.56109375 122.396875 272.4296875 123.40625 C289.94979061 143.8007696 305.03284131 165.82467626 317.875 189.4375 C318.45580322 190.50436035 318.45580322 190.50436035 319.04833984 191.59277344 C326.75811505 205.81493621 333.42912422 220.19652499 338.875 235.4375 C339.19791016 236.33919922 339.52082031 237.24089844 339.85351562 238.16992188 C340.90968518 241.13157247 341.95662255 244.09632003 343 247.0625 C343.32468262 247.97950684 343.64936523 248.89651367 343.98388672 249.84130859 C368.12242981 319.14307808 368.22985681 400.91402519 344.875 470.4375 C344.61638184 471.22672852 344.35776367 472.01595703 344.09130859 472.82910156 C335.46580969 499.06961015 324.11267532 523.58398491 310.10742188 547.33642578 C308.33670991 550.35519503 306.60439261 553.39490039 304.875 556.4375 C304.215 556.4375 303.555 556.4375 302.875 556.4375 C302.72224609 557.28634766 302.72224609 557.28634766 302.56640625 558.15234375 C301.73959563 560.88502291 300.48527955 562.68706792 298.8125 565 C298.17699219 565.88300781 297.54148437 566.76601563 296.88671875 567.67578125 C296.22285156 568.58714844 295.55898438 569.49851562 294.875 570.4375 C294.26269531 571.29730469 293.65039062 572.15710938 293.01953125 573.04296875 C284.98510705 584.25803098 276.55730062 594.9737695 267.08984375 605.01171875 C264.77349492 607.42575398 264.77349492 607.42575398 262.875 610.4375 C262.215 610.4375 261.555 610.4375 260.875 610.4375 C260.215 611.7575 259.555 613.0775 258.875 614.4375 C258.215 614.4375 257.555 614.4375 256.875 614.4375 C256.215 615.7575 255.555 617.0775 254.875 618.4375 C254.215 618.4375 253.555 618.4375 252.875 618.4375 C252.215 619.7575 251.555 621.0775 250.875 622.4375 C250.215 622.4375 249.555 622.4375 248.875 622.4375 C248.875 623.0975 248.875 623.7575 248.875 624.4375 C247.44140625 625.8828125 247.44140625 625.8828125 245.4375 627.5625 C242.39454765 630.14472365 239.39672717 632.75960781 236.4375 635.4375 C224.0625 646.4375 224.0625 646.4375 220.875 646.4375 C220.875 647.0975 220.875 647.7575 220.875 648.4375 C219.15078573 649.65235385 217.36865116 650.78568704 215.5625 651.875 C212.2827698 653.85998703 209.52917991 655.68878766 206.875 658.4375 C205.40061861 659.5352731 203.89857318 660.59658811 202.375 661.625 C201.6015625 662.15480469 200.828125 662.68460938 200.03125 663.23046875 C197.875 664.4375 197.875 664.4375 194.875 664.4375 C194.875 665.0975 194.875 665.7575 194.875 666.4375 C193.44607422 667.25154297 193.44607422 667.25154297 191.98828125 668.08203125 C190.72133756 668.80465839 189.45441141 669.52731627 188.1875 670.25 C187.24874023 670.78463867 187.24874023 670.78463867 186.29101562 671.33007812 C183.63848477 672.8438261 180.99602093 674.36428044 178.3828125 675.9453125 C159.31000534 687.29392984 138.82396356 696.20816522 117.875 703.4375 C116.86034668 703.79086426 116.86034668 703.79086426 115.82519531 704.15136719 C48.80809386 727.39678437 -23.60596107 728.51299439 -92.125 711.4375 C-92.9495166 711.23576172 -93.7740332 711.03402344 -94.62353516 710.82617188 C-99.53918097 709.59584168 -104.33640652 708.08449809 -109.125 706.4375 C-110.30143066 706.03402344 -111.47786133 705.63054688 -112.68994141 705.21484375 C-129.98534433 699.24302049 -146.85060156 692.86431652 -163.125 684.4375 C-164.26775391 683.85572998 -164.26775391 683.85572998 -165.43359375 683.26220703 C-174.08367445 678.85399283 -182.471965 674.14855086 -190.68359375 668.96875 C-193.01111351 667.45428395 -193.01111351 667.45428395 -195.125 666.4375 C-195.125 665.7775 -195.125 665.1175 -195.125 664.4375 C-195.97384766 664.28474609 -195.97384766 664.28474609 -196.83984375 664.12890625 C-199.57252291 663.30209563 -201.37456792 662.04777955 -203.6875 660.375 C-205.01587891 659.41787109 -205.01587891 659.41787109 -206.37109375 658.44140625 C-207.27988281 657.78011719 -208.18867188 657.11882813 -209.125 656.4375 C-209.96160156 655.84839844 -210.79820312 655.25929688 -211.66015625 654.65234375 C-222.42426467 647.0054432 -232.73948351 638.60670435 -242.57421875 629.796875 C-244.039951 628.51205177 -245.58126225 627.31496451 -247.125 626.125 C-247.785 625.568125 -248.445 625.01125 -249.125 624.4375 C-249.125 623.7775 -249.125 623.1175 -249.125 622.4375 C-250.445 621.7775 -251.765 621.1175 -253.125 620.4375 C-253.125 619.7775 -253.125 619.1175 -253.125 618.4375 C-254.445 617.7775 -255.765 617.1175 -257.125 616.4375 C-257.125 615.7775 -257.125 615.1175 -257.125 614.4375 C-258.445 613.7775 -259.765 613.1175 -261.125 612.4375 C-261.125 611.7775 -261.125 611.1175 -261.125 610.4375 C-261.785 610.4375 -262.445 610.4375 -263.125 610.4375 C-264.46484375 609.14453125 -264.46484375 609.14453125 -266.0625 607.25 C-266.99449219 606.15171875 -266.99449219 606.15171875 -267.9453125 605.03125 C-268.66460937 604.1753125 -269.38390625 603.319375 -270.125 602.4375 C-270.96804688 601.4578125 -271.81109375 600.478125 -272.6796875 599.46875 C-281.82632222 588.8214827 -290.31328972 577.816218 -298.21484375 566.21484375 C-300.0377073 563.49089386 -300.0377073 563.49089386 -301.87890625 561.25390625 C-303.125 559.4375 -303.125 559.4375 -303.125 556.4375 C-303.785 556.4375 -304.445 556.4375 -305.125 556.4375 C-305.6096875 555.58929687 -306.094375 554.74109375 -306.59375 553.8671875 C-306.9131958 553.30845947 -307.2326416 552.74973145 -307.56176758 552.17407227 C-308.28400606 550.90953301 -309.00515974 549.64437368 -309.7253418 548.37866211 C-311.47685665 545.30357868 -313.24180178 542.24109296 -315.05078125 539.19921875 C-336.2505417 503.25179886 -350.11943457 462.48063223 -357.125 421.4375 C-357.33672852 420.20257813 -357.54845703 418.96765625 -357.76660156 417.6953125 C-365.80841907 368.24641879 -362.07117044 317.85130817 -350.125 269.4375 C-349.92326172 268.61008301 -349.72152344 267.78266602 -349.51367188 266.93017578 C-348.28356145 262.01767758 -346.77098988 257.22316215 -345.125 252.4375 C-344.72152344 251.26106934 -344.31804687 250.08463867 -343.90234375 248.87255859 C-337.93531955 231.59154545 -331.6324969 214.65658065 -323.125 198.4375 C-322.38950928 197.02791016 -322.38950928 197.02791016 -321.63916016 195.58984375 C-320.08717968 192.63480285 -318.51786828 189.68994981 -316.9375 186.75 C-316.46248047 185.86481689 -315.98746094 184.97963379 -315.49804688 184.06762695 C-312.54341508 178.6856123 -309.29234969 173.65771627 -305.68383789 168.68969727 C-304.19705736 166.54160794 -302.95201812 164.37932882 -301.75 162.0625 C-297.02704057 153.28244099 -290.33296512 145.59572365 -284.0859375 137.8671875 C-282.76843832 136.23474828 -281.4612543 134.59393475 -280.1640625 132.9453125 C-275.97199971 127.62652928 -271.59695945 122.54730965 -267.0078125 117.56640625 C-264.98964335 115.38148264 -264.98964335 115.38148264 -263.125 112.4375 C-262.465 112.4375 -261.805 112.4375 -261.125 112.4375 C-260.135 110.4575 -260.135 110.4575 -259.125 108.4375 C-258.465 108.4375 -257.805 108.4375 -257.125 108.4375 C-256.135 106.4575 -256.135 106.4575 -255.125 104.4375 C-254.465 104.4375 -253.805 104.4375 -253.125 104.4375 C-252.135 102.4575 -252.135 102.4575 -251.125 100.4375 C-250.465 100.4375 -249.805 100.4375 -249.125 100.4375 C-249.125 99.7775 -249.125 99.1175 -249.125 98.4375 C-247.83203125 97.09765625 -247.83203125 97.09765625 -245.9375 95.5 C-245.2053125 94.87867188 -244.473125 94.25734375 -243.71875 93.6171875 C-242.8628125 92.89789063 -242.006875 92.17859375 -241.125 91.4375 C-240.1453125 90.59445313 -239.165625 89.75140625 -238.15625 88.8828125 C-227.5089827 79.73617778 -216.503718 71.24921028 -204.90234375 63.34765625 C-202.17839386 61.5247927 -202.17839386 61.5247927 -199.94140625 59.68359375 C-198.125 58.4375 -198.125 58.4375 -195.125 58.4375 C-195.125 57.7775 -195.125 57.1175 -195.125 56.4375 C-194.27679688 55.9528125 -193.42859375 55.468125 -192.5546875 54.96875 C-191.99595947 54.6493042 -191.43723145 54.3298584 -190.86157227 54.00073242 C-189.59703301 53.27849394 -188.33187368 52.55734026 -187.06616211 51.8371582 C-183.99107868 50.08564335 -180.92859296 48.32069822 -177.88671875 46.51171875 C-141.51067111 25.05917783 -100.61682525 11.5132953 -59.125 4.4375 C-57.93922363 4.22577148 -56.75344727 4.01404297 -55.53173828 3.79589844 C-37.03250383 0.5929853 -18.74304687 0.0492136 0 0 Z " fill="#FE914E" transform="translate(400.125,38.5625)"/>
<path d="M0 0 C0.6727597 0.00182281 1.34551941 0.00364563 2.03866577 0.00552368 C13.53514761 0.05766847 24.63945711 0.82061797 35.875 3.3125 C37.00736084 3.56193359 37.00736084 3.56193359 38.16259766 3.81640625 C74.2413605 12.10860967 103.99127132 34.39445972 123.578125 65.55859375 C136.26788952 86.26900344 142.83595961 108.31595412 145.875 132.3125 C146.04700928 133.55273926 146.21901855 134.79297852 146.39624023 136.07080078 C146.90532132 140.17147964 147.05203815 144.24943583 147.078125 148.37890625 C147.08509399 149.12685959 147.09206299 149.87481293 147.09924316 150.64543152 C147.11657383 153.05534543 147.12296647 155.4650263 147.125 157.875 C147.12600708 158.69963745 147.12701416 159.5242749 147.12805176 160.37390137 C147.11691018 173.88076967 146.40398093 187.01354857 143.875 200.3125 C143.66617188 201.44558594 143.66617188 201.44558594 143.453125 202.6015625 C137.84763808 231.97846618 124.02544227 258.33982332 103.2734375 279.7734375 C100.7852565 282.26498522 100.7852565 282.26498522 98.875 285.3125 C103.88669829 291.77810394 108.93410321 298.21521254 113.9921875 304.64453125 C115.85570448 307.01371676 117.71509178 309.38603194 119.5703125 311.76171875 C120.4633617 312.90378659 121.35659088 314.0457137 122.25 315.1875 C122.91044312 316.03235962 122.91044312 316.03235962 123.58422852 316.89428711 C126.17050069 320.18830324 128.79547292 323.44612448 131.45703125 326.6796875 C132.05660645 327.40945801 132.65618164 328.13922852 133.27392578 328.89111328 C134.44891007 330.31758206 135.62815214 331.74055636 136.81201172 333.15966797 C137.34197754 333.80307129 137.87194336 334.44647461 138.41796875 335.109375 C138.89258545 335.68010742 139.36720215 336.25083984 139.85620117 336.83886719 C140.875 338.3125 140.875 338.3125 140.875 340.3125 C133.40896611 340.68596313 125.94391474 340.96882941 118.47062397 341.14149475 C114.99810209 341.22446081 111.53203512 341.33651795 108.06323242 341.51953125 C83.82766282 342.76475464 83.82766282 342.76475464 77.30151367 336.9609375 C74.40718635 333.72501313 72.18961718 330.24545243 70.11552429 326.44287109 C67.98013161 322.775729 65.24745403 319.58582848 62.5625 316.3125 C61.6464395 315.14842274 60.73336068 313.98198862 59.82421875 312.8125 C59.18097656 311.9875 58.53773438 311.1625 57.875 310.3125 C57.21435547 310.4986084 56.55371094 310.6847168 55.87304688 310.87646484 C49.07880544 312.7636215 42.26318276 314.4315815 35.375 315.9375 C34.41980469 316.1540625 33.46460938 316.370625 32.48046875 316.59375 C-4.82631088 324.7719615 -45.42486629 317.69077945 -77.75610352 297.59790039 C-84.74713462 293.08507678 -91.01954808 287.95030028 -97.125 282.3125 C-97.85847656 281.64863281 -98.59195313 280.98476563 -99.34765625 280.30078125 C-121.58787911 259.21015241 -134.15434417 229.83835608 -140.125 200.3125 C-140.35364746 199.24539795 -140.35364746 199.24539795 -140.58691406 198.15673828 C-145.76245686 173.15651913 -145.71448842 143.22665279 -140.125 118.3125 C-139.92632324 117.39839355 -139.72764648 116.48428711 -139.52294922 115.54248047 C-131.11685777 77.86933805 -111.17998584 43.46600523 -78.31396484 22.13720703 C-54.54715772 7.29462128 -27.95510285 -0.12113936 0 0 Z " fill="#FEFEFE" transform="translate(397.125,239.6875)"/>
<path d="M0 0 C20.33354938 17.10649917 28.36751953 43.77212375 30.94580078 69.34619141 C33.78750143 102.96432622 29.10301213 136.6050283 8.41015625 164.0078125 C4.31845708 162.48510253 2.27680972 159.60218496 -0.21484375 156.1953125 C-1.45610309 154.53548897 -2.70362807 152.87949943 -3.99951172 151.26196289 C-5.58984375 149.0078125 -5.58984375 149.0078125 -7.18408203 145.70483398 C-9.34042255 141.64551179 -11.55997593 138.37012646 -15.58984375 136.0078125 C-24.50567944 133.66832792 -34.08599294 134.46594734 -43.21484375 134.6953125 C-45.77080073 134.71231766 -48.32680398 134.72344483 -50.8828125 134.72851562 C-57.12063562 134.75364169 -63.35398642 134.85208643 -69.58984375 135.0078125 C-67.24488235 138.14427292 -64.89798637 141.27928094 -62.55078125 144.4140625 C-61.897146 145.28836914 -61.24351074 146.16267578 -60.57006836 147.06347656 C-56.17849322 152.92613455 -51.72518661 158.73610222 -47.21484375 164.5078125 C-39.06018364 174.95736125 -39.06018364 174.95736125 -35.27734375 179.9453125 C-34.57996094 180.86183594 -33.88257813 181.77835938 -33.1640625 182.72265625 C-31.58984375 185.0078125 -31.58984375 185.0078125 -30.58984375 188.0078125 C-52.46818941 192.04761111 -74.98051768 189.58447333 -93.58984375 177.0078125 C-113.6308091 162.10106826 -124.75237514 138.91341145 -128.33984375 114.6328125 C-128.79196781 111.42827304 -129.2022151 108.22074141 -129.58984375 105.0078125 C-129.68628174 104.25193848 -129.78271973 103.49606445 -129.88208008 102.71728516 C-133.81815871 70.32437443 -127.64841717 36.00208818 -108.33984375 9.3203125 C-96.53427409 -5.21973209 -79.10897787 -14.02916879 -60.7734375 -16.67578125 C-38.50346067 -18.88911637 -17.83628924 -13.72022249 0 0 Z " fill="#FE914D" transform="translate(448.58984375,312.9921875)"/>
<path d="M0 0 C0.33 0 0.66 0 1 0 C0.93941406 0.70382812 0.87882812 1.40765625 0.81640625 2.1328125 C0.33770434 7.77413036 -0.08783359 13.41164102 -0.4375 19.0625 C-0.79272872 24.19922012 -1.50686661 29.11562239 -2.49853516 34.16186523 C-4.48924343 45.42865379 -4.19703324 56.97444065 -4.1875 68.375 C-4.1882251 69.25896454 -4.1889502 70.14292908 -4.18969727 71.05368042 C-4.1885421 83.80110947 -3.69965864 96.3371125 -2.1875 109.00439453 C-1.90463979 112.01494062 -1.9357947 114.9783379 -2 118 C-2.33 118 -2.66 118 -3 118 C-5.58079476 101.6497344 -6.52530172 85.66588557 -6.4375 69.125 C-6.43578796 67.97777466 -6.43407593 66.83054932 -6.43231201 65.64855957 C-6.37576088 43.4951352 -5.15100196 21.62492714 0 0 Z " fill="#FEF7ED" transform="translate(45,331)"/>
<path d="M0 0 C3.45702221 0.02378066 6.91327675 0.02050559 10.37036133 0.01391602 C22.59580735 0.03061342 34.53672124 0.49278405 46.63012695 2.33618164 C46.63012695 2.66618164 46.63012695 2.99618164 46.63012695 3.33618164 C44.69271326 3.36390298 42.75517463 3.38289254 40.81762695 3.39868164 C39.73868164 3.4102832 38.65973633 3.42188477 37.5480957 3.43383789 C34.59702595 3.36028182 31.80820162 3.15942343 28.8840332 2.84399414 C21.25455486 2.11163204 13.61942372 2.15015167 5.96166992 2.15087891 C3.39916218 2.14869784 0.83708993 2.1304968 -1.7253418 2.11157227 C-10.72408544 2.08181843 -19.31274432 2.53600719 -28.22094727 3.88867188 C-31.98275337 4.42328116 -35.51249982 4.53942645 -39.30737305 4.46118164 C-40.47139648 4.44313477 -41.63541992 4.42508789 -42.8347168 4.40649414 C-43.67131836 4.38329102 -44.50791992 4.36008789 -45.36987305 4.33618164 C-45.36987305 4.00618164 -45.36987305 3.67618164 -45.36987305 3.33618164 C-30.179237 0.8032909 -15.39331295 -0.11296838 0 0 Z " fill="#FEF6ED" transform="translate(396.369873046875,38.663818359375)"/>
<path d="M0 0 C0.33 0 0.66 0 1 0 C0.93941406 0.70382812 0.87882812 1.40765625 0.81640625 2.1328125 C0.33770434 7.77413036 -0.08783359 13.41164102 -0.4375 19.0625 C-0.79481679 24.22941423 -1.51028352 29.17276298 -2.5234375 34.24609375 C-3.36823693 39.12792652 -3.67242453 44.06050673 -4 49 C-4.33 49 -4.66 49 -5 49 C-5.90999675 32.94866836 -4.22118516 15.5144393 0 0 Z " fill="#FDE8D7" transform="translate(45,331)"/>
<path d="M0 0 C0 4.24711005 -2.44546676 6.21693221 -5.125 9.25 C-5.62765381 9.82903076 -6.13030762 10.40806152 -6.64819336 11.00463867 C-7.64459365 12.15227686 -8.64348106 13.2977611 -9.64501953 14.44091797 C-11.32038608 16.36864604 -12.93911234 18.34095439 -14.5625 20.3125 C-15.7690625 21.6428125 -15.7690625 21.6428125 -17 23 C-17.66 23 -18.32 23 -19 23 C-17.69183914 20.13210889 -16.27313766 18.0011937 -14.1015625 15.72265625 C-13.25851562 14.82836914 -13.25851562 14.82836914 -12.3984375 13.91601562 C-11.81320312 13.30435547 -11.22796875 12.69269531 -10.625 12.0625 C-6.91262999 8.15539629 -3.29408706 4.27582237 0 0 Z " fill="#FEF4E8" transform="translate(680,626)"/>
<path d="M0 0 C0.33 0.66 0.66 1.32 1 2 C0.52691406 2.4125 0.05382812 2.825 -0.43359375 3.25 C-4.95919053 7.20217808 -9.45425207 11.18547848 -13.921875 15.203125 C-15.88674747 16.90207488 -17.90244912 18.46935476 -20 20 C-20.66 19.67 -21.32 19.34 -22 19 C-5.24474773 3.8584708 -5.24474773 3.8584708 0 0 Z " fill="#FEF5EB" transform="translate(648,661)"/>
<path d="M0 0 C0 0.33 0 0.66 0 1 C-9.79539929 2.53653322 -19.07092668 3.27538262 -29 3 C-29 2.67 -29 2.34 -29 2 C-19.22907228 0.12612345 -9.89644867 -0.22867275 0 0 Z " fill="#FCE0CB" transform="translate(380,40)"/>
<path d="M0 0 C0.66 0.33 1.32 0.66 2 1 C-0.2632159 5.27496337 -3.12603579 9.0642615 -7 12 C-7.99 12 -8.98 12 -10 12 C-9.34 10.68 -8.68 9.36 -8 8 C-7.34 8 -6.68 8 -6 8 C-5.34 6.68 -4.68 5.36 -4 4 C-3.34 4 -2.68 4 -2 4 C-1.34 2.68 -0.68 1.36 0 0 Z " fill="#FBD3B9" transform="translate(149,139)"/>
<path d="M0 0 C-0.5625 1.8125 -0.5625 1.8125 -2 4 C-4.30368736 5.06652192 -6.64018187 6.06421005 -9 7 C-11.33878876 8.56328365 -11.33878876 8.56328365 -13 10 C-13.66 9.67 -14.32 9.34 -15 9 C-12.33333333 7 -9.66666667 5 -7 3 C-6.31421875 2.43925781 -5.6284375 1.87851563 -4.921875 1.30078125 C-3 0 -3 0 0 0 Z " fill="#FCE0CB" transform="translate(205,97)"/>
</svg>
